<svg width="1331" height="676" viewBox="0 0 1331 676" fill="none" xmlns="http://www.w3.org/2000/svg">
<path d="M394 284V103.5C386.667 117 371.7 154.3 370.5 195.5C369.3 236.7 385.667 271.667 394 284Z" fill="#132030"/>
<path d="M352.5 316H746L761 448H263.5L352.5 316Z" fill="#FFA627"/>
<path fill-rule="evenodd" clip-rule="evenodd" d="M521 448C521 387.249 471.751 338 411 338C350.249 338 301 387.249 301 448H521Z" fill="white"/>
<path fill-rule="evenodd" clip-rule="evenodd" d="M749 448C749 387.249 699.751 338 639 338C578.249 338 529 387.249 529 448H749Z" fill="white"/>
<circle cx="411" cy="459" r="100" fill="#132030"/>
<circle cx="411" cy="462" r="75" fill="white"/>
<ellipse cx="427" cy="454" rx="71" ry="67" fill="#132030"/>
<circle cx="639" cy="459" r="100" fill="#132030"/>
<circle cx="639" cy="462" r="75" fill="white"/>
<ellipse cx="655" cy="454" rx="71" ry="67" fill="#132030"/>
<path d="M367 310C367 298.954 375.954 290 387 290H726C737.046 290 746 298.954 746 310V310H367V310Z" fill="#FFA627"/>
<path d="M394 103H548C564.569 103 578 116.431 578 133V284H394V103Z" fill="#132030"/>
<path d="M411.236 124H494V211.993L400.89 262L390 186.028L411.236 124Z" fill="#E1FFFA"/>
<path d="M507 124H543L556 187.522V252L507 212.358V124Z" fill="#E1FFFA"/>
<path d="M584 179H745C756.046 179 765 187.954 765 199V254C765 270.569 751.569 284 735 284H584V179Z" fill="#FFA627"/>
<path d="M611 172C611 160.954 619.954 152 631 152H710C721.046 152 730 160.954 730 172V173H611V172Z" fill="#132030"/>
<path d="M121.2 279C149.467 279 173.867 284.6 194.4 295.8C214.933 307 230.667 323.133 241.6 344.2C252.533 365 258 389.933 258 419C258 447 252.267 471.667 240.8 493C229.6 514.067 213.733 530.333 193.2 541.8C172.667 553.267 148.667 559 121.2 559H26.4V279H121.2ZM113.2 516.6C139.867 516.6 160.4 508.2 174.8 491.4C189.2 474.333 196.4 450.333 196.4 419.4C196.4 354.067 168.667 321.4 113.2 321.4H88V516.6H113.2Z" fill="#132030"/>
<path d="M949.5 524.7V559H788.5V528.2L889.65 400.8H797.6V366.5H946.7V396.95L842.4 524.7H949.5ZM1077.44 364.05C1088.64 364.05 1096.8 366.5 1101.94 371.4C1107.07 376.067 1109.64 383.65 1109.64 394.15C1109.64 398.117 1109.05 402.083 1107.89 406.05C1106.95 409.783 1105.55 412.7 1103.69 414.8C1100.89 413.167 1097.74 412 1094.24 411.3C1090.74 410.6 1085.72 410.25 1079.19 410.25C1064.02 410.25 1052.7 414.917 1045.24 424.25C1038 433.583 1034.39 447.817 1034.39 466.95V559H982.586V366.5H1034.39V392.05C1039.05 382.95 1045.12 376.067 1052.59 371.4C1060.05 366.5 1068.34 364.05 1077.44 364.05Z" fill="#132030"/>
<path d="M1326.79 559C1323.75 559 1315.24 559.35 1301.24 560.05C1294.7 560.517 1290.39 560.75 1288.29 560.75C1281.99 560.75 1276.97 559.583 1273.24 557.25C1269.5 554.917 1266.24 551.417 1263.44 546.75L1236.14 497.4C1232.64 490.867 1228.32 486.317 1223.19 483.75C1218.29 480.95 1210.47 479.9 1199.74 480.6L1190.64 481.3V559H1138.84V282.15H1190.64V445.6L1198.34 445.25C1206.97 444.783 1213.39 443.15 1217.59 440.35C1221.79 437.55 1225.87 432.067 1229.84 423.9L1257.84 366.5H1315.24L1276.74 435.45C1273 441.983 1269.62 447.117 1266.59 450.85C1263.79 454.583 1259.82 457.85 1254.69 460.65C1261.69 462.517 1267.17 465.083 1271.14 468.35C1275.1 471.617 1278.84 476.283 1282.34 482.35L1326.79 559Z" fill="#FFA627"/>
</svg>
